<svg width="512" height="512" viewBox="0 0 512 512" xmlns="http://www.w3.org/2000/svg">
  <!-- Círculo de fondo con gradiente -->
  <defs>
    <linearGradient id="bgGradient" x1="0%" y1="0%" x2="100%" y2="100%">
      <stop offset="0%" style="stop-color:#3b82f6;stop-opacity:1" />
      <stop offset="100%" style="stop-color:#8b5cf6;stop-opacity:1" />
    </linearGradient>
  </defs>
  
  <!-- Círculo de fondo -->
  <circle cx="256" cy="256" r="256" fill="url(#bgGradient)"/>
  
  <!-- Logo EF centrado y escalado -->
  <g transform="translate(56, 56) scale(4.0)">
    <g fill="white">
      <!-- Líneas horizontales principales -->
      <path d="M67.539,22.815H20.016c-1.04,0-1.884-0.844-1.884-1.885c0-1.041,0.844-1.885,1.884-1.885h47.523c1.04,0,1.885,0.844,1.885,1.885C69.424,21.972,68.579,22.815,67.539,22.815z" />
      <path d="M38.493,34.586H20.016c-1.04,0-1.884-0.844-1.884-1.885c0-1.042,0.844-1.886,1.884-1.886h18.477c1.042,0,1.885,0.844,1.885,1.886C40.378,33.742,39.534,34.586,38.493,34.586z" />
      <path d="M82.701,46.36H20.016c-1.04,0-1.884-0.844-1.884-1.885c0-1.042,0.844-1.884,1.884-1.884h62.686c1.041,0,1.886,0.843,1.886,1.884C84.587,45.517,83.742,46.36,82.701,46.36z" />
      <path d="M54.605,58.169h-34.59c-1.04,0-1.884-0.843-1.884-1.885c0-1.04,0.844-1.885,1.884-1.885h34.59c1.042,0,1.887,0.845,1.887,1.885C56.492,57.326,55.647,58.169,54.605,58.169z" />
      <path d="M83.118,58.169H63.503c-1.04,0-1.884-0.843-1.884-1.885c0-1.04,0.844-1.885,1.884-1.885h19.615c1.041,0,1.885,0.845,1.885,1.885C85.003,57.326,84.159,58.169,83.118,58.169z" />
      <path d="M44.114,69.901H20.016c-1.04,0-1.884-0.842-1.884-1.885c0-1.04,0.844-1.884,1.884-1.884h24.098c1.041,0,1.885,0.844,1.885,1.884C45.999,69.06,45.154,69.901,44.114,69.901z" />
      <path d="M82.701,69.895H52.978c-1.041,0-1.885-0.844-1.885-1.884c0-1.044,0.844-1.886,1.885-1.886h29.724c1.041,0,1.886,0.842,1.886,1.886C84.587,69.051,83.742,69.895,82.701,69.895z" />
      <path d="M65.816,81.679H20.016c-1.04,0-1.884-0.845-1.884-1.886c0-1.042,0.844-1.886,1.884-1.886h45.801c1.042,0,1.886,0.844,1.886,1.886C67.702,80.834,66.858,81.679,65.816,81.679z" />
      
      <!-- Símbolos de código -->
      <path d="M12.909,27.367c-0.496,0-0.991-0.194-1.361-0.582l-4.355-4.552c-0.694-0.726-0.697-1.87-0.005-2.6l4.297-4.535c0.717-0.756,1.91-0.787,2.666-0.071c0.754,0.716,0.788,1.909,0.072,2.665l-3.064,3.232l3.115,3.254c0.718,0.753,0.691,1.946-0.06,2.666C13.847,27.193,13.378,27.367,12.909,27.367z" />
      <path d="M12.909,74.438c-0.496,0-0.991-0.193-1.361-0.581l-4.355-4.552c-0.694-0.729-0.697-1.872-0.005-2.602l4.297-4.531c0.718-0.755,1.91-0.787,2.666-0.071c0.754,0.717,0.787,1.907,0.072,2.663l-3.064,3.23l3.115,3.254c0.718,0.754,0.691,1.946-0.06,2.664C13.847,74.264,13.378,74.438,12.909,74.438z" />
      <path d="M71.189,86.221c-0.466,0-0.933-0.172-1.297-0.518c-0.756-0.715-0.787-1.909-0.071-2.665l3.063-3.229l-3.113-3.258c-0.721-0.752-0.693-1.944,0.06-2.665c0.752-0.719,1.944-0.692,2.665,0.061l4.354,4.555c0.694,0.726,0.696,1.869,0.006,2.599l-4.299,4.534C72.187,86.022,71.688,86.221,71.189,86.221z" />
      <path d="M88.704,62.324c-0.466,0-0.932-0.171-1.297-0.517c-0.756-0.716-0.788-1.909-0.072-2.665l3.063-3.232l-3.112-3.253c-0.72-0.752-0.692-1.945,0.059-2.666c0.751-0.718,1.945-0.693,2.665,0.06l4.354,4.551c0.694,0.725,0.697,1.869,0.006,2.599l-4.297,4.534C89.702,62.128,89.203,62.324,88.704,62.324z" />
    </g>
  </g>
</svg>
