<svg width="800" height="600" viewBox="0 0 800 600" fill="none" xmlns="http://www.w3.org/2000/svg">
  <!-- Background gradient -->
  <defs>
    <linearGradient id="bg" x1="0%" y1="0%" x2="100%" y2="100%">
      <stop offset="0%" style="stop-color:#667eea;stop-opacity:1" />
      <stop offset="100%" style="stop-color:#764ba2;stop-opacity:1" />
    </linearGradient>
    <linearGradient id="card" x1="0%" y1="0%" x2="100%" y2="100%">
      <stop offset="0%" style="stop-color:#ffffff;stop-opacity:0.9" />
      <stop offset="100%" style="stop-color:#f8fafc;stop-opacity:0.8" />
    </linearGradient>
  </defs>
  
  <!-- Background -->
  <rect width="800" height="600" fill="url(#bg)"/>
  
  <!-- Header -->
  <rect x="0" y="0" width="800" height="80" fill="rgba(255,255,255,0.1)" stroke="none"/>
  <text x="40" y="50" font-family="Arial, sans-serif" font-size="24" font-weight="bold" fill="white">E-Commerce Platform</text>
  
  <!-- Navigation -->
  <rect x="40" y="100" width="720" height="50" fill="url(#card)" rx="8"/>
  <text x="60" y="130" font-family="Arial, sans-serif" font-size="16" fill="#374151">Home</text>
  <text x="120" y="130" font-family="Arial, sans-serif" font-size="16" fill="#374151">Products</text>
  <text x="200" y="130" font-family="Arial, sans-serif" font-size="16" fill="#374151">Cart</text>
  <text x="250" y="130" font-family="Arial, sans-serif" font-size="16" fill="#374151">Account</text>
  
  <!-- Product cards -->
  <rect x="40" y="180" width="220" height="280" fill="url(#card)" rx="12"/>
  <rect x="60" y="200" width="180" height="120" fill="#e5e7eb" rx="8"/>
  <text x="70" y="350" font-family="Arial, sans-serif" font-size="18" font-weight="bold" fill="#111827">Product 1</text>
  <text x="70" y="370" font-family="Arial, sans-serif" font-size="16" fill="#6b7280">$29.99</text>
  <rect x="60" y="380" width="80" height="30" fill="#3b82f6" rx="4"/>
  <text x="85" y="400" font-family="Arial, sans-serif" font-size="14" fill="white">Add to Cart</text>
  
  <rect x="280" y="180" width="220" height="280" fill="url(#card)" rx="12"/>
  <rect x="300" y="200" width="180" height="120" fill="#e5e7eb" rx="8"/>
  <text x="310" y="350" font-family="Arial, sans-serif" font-size="18" font-weight="bold" fill="#111827">Product 2</text>
  <text x="310" y="370" font-family="Arial, sans-serif" font-size="16" fill="#6b7280">$49.99</text>
  <rect x="300" y="380" width="80" height="30" fill="#3b82f6" rx="4"/>
  <text x="325" y="400" font-family="Arial, sans-serif" font-size="14" fill="white">Add to Cart</text>
  
  <rect x="520" y="180" width="220" height="280" fill="url(#card)" rx="12"/>
  <rect x="540" y="200" width="180" height="120" fill="#e5e7eb" rx="8"/>
  <text x="550" y="350" font-family="Arial, sans-serif" font-size="18" font-weight="bold" fill="#111827">Product 3</text>
  <text x="550" y="370" font-family="Arial, sans-serif" font-size="16" fill="#6b7280">$39.99</text>
  <rect x="540" y="380" width="80" height="30" fill="#3b82f6" rx="4"/>
  <text x="565" y="400" font-family="Arial, sans-serif" font-size="14" fill="white">Add to Cart</text>
  
  <!-- Shopping cart icon -->
  <circle cx="700" cy="130" r="20" fill="#ef4444"/>
  <text x="695" y="135" font-family="Arial, sans-serif" font-size="12" font-weight="bold" fill="white">3</text>
  
  <!-- Footer -->
  <rect x="0" y="500" width="800" height="100" fill="rgba(0,0,0,0.1)"/>
  <text x="40" y="540" font-family="Arial, sans-serif" font-size="14" fill="white">© 2024 E-Commerce Platform. All rights reserved.</text>
</svg>
